<?xml version="1.0" encoding="UTF-8" standalone="no"?>
<svg
   xmlns:dc="http://purl.org/dc/elements/1.1/"
   xmlns:cc="http://creativecommons.org/ns#"
   xmlns:rdf="http://www.w3.org/1999/02/22-rdf-syntax-ns#"
   xmlns:svg="http://www.w3.org/2000/svg"
   xmlns="http://www.w3.org/2000/svg"
   xmlns:sodipodi="http://sodipodi.sourceforge.net/DTD/sodipodi-0.dtd"
   xmlns:inkscape="http://www.inkscape.org/namespaces/inkscape"
   fill-opacity="0"
   color-rendering="auto"
   color-interpolation="auto"
   stroke="rgb(0,0,0)"
   text-rendering="auto"
   stroke-linecap="square"
   width="560"
   stroke-miterlimit="10"
   stroke-opacity="0"
   shape-rendering="auto"
   fill="rgb(0,0,0)"
   stroke-dasharray="none"
   font-weight="normal"
   stroke-width="1"
   height="340"
   font-family="'Dialog'"
   font-style="normal"
   stroke-linejoin="miter"
   font-size="12"
   stroke-dashoffset="0"
   image-rendering="auto"
   id="svg7309"
   version="1.1"
   inkscape:version="0.48.3.1 r9886"
   sodipodi:docname="actors.svg">
  <metadata
     id="metadata7666">
    <rdf:RDF>
      <cc:Work
         rdf:about="">
        <dc:format>image/svg+xml</dc:format>
        <dc:type
           rdf:resource="http://purl.org/dc/dcmitype/StillImage" />
      </cc:Work>
    </rdf:RDF>
  </metadata>
  <sodipodi:namedview
     pagecolor="#ffffff"
     bordercolor="#666666"
     borderopacity="1"
     objecttolerance="10"
     gridtolerance="10"
     guidetolerance="10"
     inkscape:pageopacity="0"
     inkscape:pageshadow="2"
     inkscape:window-width="960"
     inkscape:window-height="1028"
     id="namedview7664"
     showgrid="false"
     inkscape:zoom="0.52142857"
     inkscape:cx="280"
     inkscape:cy="323.42466"
     inkscape:window-x="961"
     inkscape:window-y="24"
     inkscape:window-maximized="0"
     inkscape:current-layer="svg7309" />
  <!--Generated by the Batik Graphics2D SVG Generator-->
  <defs
     id="genericDefs">
    <defs
       id="defs1">
      <clipPath
         id="clipPath1"
         clipPathUnits="userSpaceOnUse">
        <path
           id="path7316"
           d="M-7 -7 L41 -7 L41 71 L-7 71 L-7 -7 Z" />
      </clipPath>
      <clipPath
         id="clipPath2"
         clipPathUnits="userSpaceOnUse">
        <path
           id="path7319"
           d="M-7 -7 L31 -7 L31 31 L-7 31 L-7 -7 Z" />
      </clipPath>
      <clipPath
         id="clipPath3"
         clipPathUnits="userSpaceOnUse">
        <path
           id="path7322"
           d="M0 0 L20 0 L20 20 L0 20 L0 0 Z" />
      </clipPath>
      <clipPath
         id="clipPath4"
         clipPathUnits="userSpaceOnUse">
        <path
           id="path7325"
           d="M-132 -14 L264 -14 L264 28 L-132 28 L-132 -14 Z" />
      </clipPath>
      <clipPath
         id="clipPath5"
         clipPathUnits="userSpaceOnUse">
        <path
           id="path7328"
           d="M-93 -14 L186 -14 L186 28 L-93 28 L-93 -14 Z" />
      </clipPath>
      <clipPath
         id="clipPath6"
         clipPathUnits="userSpaceOnUse">
        <path
           id="path7331"
           d="M-79 -14 L158 -14 L158 28 L-79 28 L-79 -14 Z" />
      </clipPath>
      <clipPath
         id="clipPath7"
         clipPathUnits="userSpaceOnUse">
        <path
           id="path7334"
           d="M-97 -14 L194 -14 L194 28 L-97 28 L-97 -14 Z" />
      </clipPath>
      <clipPath
         id="clipPath8"
         clipPathUnits="userSpaceOnUse">
        <path
           id="path7337"
           d="M-110 -14 L220 -14 L220 28 L-110 28 L-110 -14 Z" />
      </clipPath>
      <clipPath
         id="clipPath9"
         clipPathUnits="userSpaceOnUse">
        <path
           id="path7340"
           d="M-73 -14 L146 -14 L146 28 L-73 28 L-73 -14 Z" />
      </clipPath>
      <clipPath
         id="clipPath10"
         clipPathUnits="userSpaceOnUse">
        <path
           id="path7343"
           d="M-45 -14 L90 -14 L90 28 L-45 28 L-45 -14 Z" />
      </clipPath>
      <clipPath
         id="clipPath11"
         clipPathUnits="userSpaceOnUse">
        <path
           id="path7346"
           d="M-169 -14 L338 -14 L338 28 L-169 28 L-169 -14 Z" />
      </clipPath>
      <clipPath
         id="clipPath12"
         clipPathUnits="userSpaceOnUse">
        <path
           id="path7349"
           d="M-164 -14 L328 -14 L328 28 L-164 28 L-164 -14 Z" />
      </clipPath>
      <clipPath
         id="clipPath13"
         clipPathUnits="userSpaceOnUse">
        <path
           id="path7352"
           d="M0 0 L244 0 L244 179 L0 179 L0 0 Z" />
      </clipPath>
      <clipPath
         id="clipPath14"
         clipPathUnits="userSpaceOnUse">
        <path
           id="path7355"
           d="M0 0 L234 0 L234 179 L0 179 L0 0 Z" />
      </clipPath>
      <clipPath
         id="clipPath15"
         clipPathUnits="userSpaceOnUse">
        <path
           id="path7358"
           d="M0 0 L104 0 L104 179 L0 179 L0 0 Z" />
      </clipPath>
      <clipPath
         id="clipPath16"
         clipPathUnits="userSpaceOnUse">
        <path
           id="path7361"
           d="M0 0 L154 0 L154 140 L0 140 L0 0 Z" />
      </clipPath>
      <clipPath
         id="clipPath17"
         clipPathUnits="userSpaceOnUse">
        <path
           id="path7364"
           d="M0 0 L143 0 L143 140 L0 140 L0 0 Z" />
      </clipPath>
    </defs>
  </defs>
  <g
     style="fill:#ffffff;fill-opacity:1;stroke:#ffffff;stroke-opacity:1"
     id="g7366"
     text-rendering="geometricPrecision">
    <rect
       style="stroke:none"
       id="rect7368"
       y="0"
       height="340"
       width="560"
       x="0" />
  </g>
  <g
     style="font-size:11px;fill:#ffffff;fill-opacity:1;stroke:#ffffff;stroke-opacity:1;font-family:sans-serif"
     id="g7370"
     text-rendering="geometricPrecision"
     transform="translate(381,2)"
     font-size="11">
    <circle
       style="stroke:none"
       sodipodi:ry="7.5"
       sodipodi:rx="7.5"
       sodipodi:cy="7.5"
       sodipodi:cx="14.5"
       d="M 22,7.5 C 22,11.642136 18.642136,15 14.5,15 10.357864,15 7,11.642136 7,7.5 7,3.3578644 10.357864,0 14.5,0 18.642136,0 22,3.3578644 22,7.5 z"
       id="circle7372"
       cy="7.5"
       cx="14.5"
       clip-path="url(#clipPath1)"
       r="7.5" />
  </g>
  <g
     style="font-size:11px;fill:#000000;fill-opacity:1;stroke:#000000;stroke-linecap:butt;stroke-linejoin:round;stroke-miterlimit:0;stroke-opacity:1;font-family:sans-serif"
     id="g7374"
     stroke-miterlimit="0"
     text-rendering="geometricPrecision"
     transform="translate(381,2)"
     font-size="11">
    <circle
       style="fill:none"
       sodipodi:ry="7.5"
       sodipodi:rx="7.5"
       sodipodi:cy="7.5"
       sodipodi:cx="14.5"
       d="M 22,7.5 C 22,11.642136 18.642136,15 14.5,15 10.357864,15 7,11.642136 7,7.5 7,3.3578644 10.357864,0 14.5,0 18.642136,0 22,3.3578644 22,7.5 z"
       id="circle7376"
       cy="7.5"
       cx="14.5"
       clip-path="url(#clipPath1)"
       r="7.5" />
    <line
       style="fill:none"
       id="line7378"
       y1="15"
       x2="15"
       clip-path="url(#clipPath1)"
       x1="15"
       y2="40" />
    <line
       style="fill:none"
       id="line7380"
       y1="24"
       x2="30"
       clip-path="url(#clipPath1)"
       x1="0"
       y2="24" />
    <line
       style="fill:none"
       id="line7382"
       y1="40"
       x2="0"
       clip-path="url(#clipPath1)"
       x1="15"
       y2="60" />
    <line
       style="fill:none"
       id="line7384"
       y1="40"
       x2="30"
       clip-path="url(#clipPath1)"
       x1="15"
       y2="60" />
  </g>
  <g
     style="font-size:11px;fill:#ffffff;fill-opacity:1;stroke:#ffffff;stroke-opacity:1;font-family:sans-serif"
     id="g7386"
     text-rendering="geometricPrecision"
     transform="translate(231,152)"
     font-size="11">
    <circle
       style="stroke:none"
       sodipodi:ry="7.5"
       sodipodi:rx="7.5"
       sodipodi:cy="7.5"
       sodipodi:cx="14.5"
       d="M 22,7.5 C 22,11.642136 18.642136,15 14.5,15 10.357864,15 7,11.642136 7,7.5 7,3.3578644 10.357864,0 14.5,0 18.642136,0 22,3.3578644 22,7.5 z"
       id="circle7388"
       cy="7.5"
       cx="14.5"
       clip-path="url(#clipPath1)"
       r="7.5" />
  </g>
  <g
     style="font-size:11px;fill:#000000;fill-opacity:1;stroke:#000000;stroke-linecap:butt;stroke-linejoin:round;stroke-miterlimit:0;stroke-opacity:1;font-family:sans-serif"
     id="g7390"
     stroke-miterlimit="0"
     text-rendering="geometricPrecision"
     transform="translate(231,152)"
     font-size="11">
    <circle
       style="fill:none"
       sodipodi:ry="7.5"
       sodipodi:rx="7.5"
       sodipodi:cy="7.5"
       sodipodi:cx="14.5"
       d="M 22,7.5 C 22,11.642136 18.642136,15 14.5,15 10.357864,15 7,11.642136 7,7.5 7,3.3578644 10.357864,0 14.5,0 18.642136,0 22,3.3578644 22,7.5 z"
       id="circle7392"
       cy="7.5"
       cx="14.5"
       clip-path="url(#clipPath1)"
       r="7.5" />
    <line
       style="fill:none"
       id="line7394"
       y1="15"
       x2="15"
       clip-path="url(#clipPath1)"
       x1="15"
       y2="40" />
    <line
       style="fill:none"
       id="line7396"
       y1="24"
       x2="30"
       clip-path="url(#clipPath1)"
       x1="0"
       y2="24" />
    <line
       style="fill:none"
       id="line7398"
       y1="40"
       x2="0"
       clip-path="url(#clipPath1)"
       x1="15"
       y2="60" />
    <line
       style="fill:none"
       id="line7400"
       y1="40"
       x2="30"
       clip-path="url(#clipPath1)"
       x1="15"
       y2="60" />
  </g>
  <g
     style="font-size:11px;fill:#ffffff;fill-opacity:1;stroke:#ffffff;stroke-opacity:1;font-family:sans-serif"
     id="g7402"
     text-rendering="geometricPrecision"
     transform="translate(501,152)"
     font-size="11">
    <circle
       style="stroke:none"
       sodipodi:ry="7.5"
       sodipodi:rx="7.5"
       sodipodi:cy="7.5"
       sodipodi:cx="14.5"
       d="M 22,7.5 C 22,11.642136 18.642136,15 14.5,15 10.357864,15 7,11.642136 7,7.5 7,3.3578644 10.357864,0 14.5,0 18.642136,0 22,3.3578644 22,7.5 z"
       id="circle7404"
       cy="7.5"
       cx="14.5"
       clip-path="url(#clipPath1)"
       r="7.5" />
  </g>
  <g
     style="font-size:11px;fill:#000000;fill-opacity:1;stroke:#000000;stroke-linecap:butt;stroke-linejoin:round;stroke-miterlimit:0;stroke-opacity:1;font-family:sans-serif"
     id="g7406"
     stroke-miterlimit="0"
     text-rendering="geometricPrecision"
     transform="translate(501,152)"
     font-size="11">
    <circle
       style="fill:none"
       sodipodi:ry="7.5"
       sodipodi:rx="7.5"
       sodipodi:cy="7.5"
       sodipodi:cx="14.5"
       d="M 22,7.5 C 22,11.642136 18.642136,15 14.5,15 10.357864,15 7,11.642136 7,7.5 7,3.3578644 10.357864,0 14.5,0 18.642136,0 22,3.3578644 22,7.5 z"
       id="circle7408"
       cy="7.5"
       cx="14.5"
       clip-path="url(#clipPath1)"
       r="7.5" />
    <line
       style="fill:none"
       id="line7410"
       y1="15"
       x2="15"
       clip-path="url(#clipPath1)"
       x1="15"
       y2="40" />
    <line
       style="fill:none"
       id="line7412"
       y1="24"
       x2="30"
       clip-path="url(#clipPath1)"
       x1="0"
       y2="24" />
    <line
       style="fill:none"
       id="line7414"
       y1="40"
       x2="0"
       clip-path="url(#clipPath1)"
       x1="15"
       y2="60" />
    <line
       style="fill:none"
       id="line7416"
       y1="40"
       x2="30"
       clip-path="url(#clipPath1)"
       x1="15"
       y2="60" />
  </g>
  <g
     style="font-size:11px;fill:#ffffff;fill-opacity:1;stroke:#ffffff;stroke-opacity:1;font-family:sans-serif"
     id="g7418"
     text-rendering="geometricPrecision"
     transform="translate(371,152)"
     font-size="11">
    <circle
       style="stroke:none"
       sodipodi:ry="7.5"
       sodipodi:rx="7.5"
       sodipodi:cy="7.5"
       sodipodi:cx="14.5"
       d="M 22,7.5 C 22,11.642136 18.642136,15 14.5,15 10.357864,15 7,11.642136 7,7.5 7,3.3578644 10.357864,0 14.5,0 18.642136,0 22,3.3578644 22,7.5 z"
       id="circle7420"
       cy="7.5"
       cx="14.5"
       clip-path="url(#clipPath1)"
       r="7.5" />
  </g>
  <g
     style="font-size:11px;fill:#000000;fill-opacity:1;stroke:#000000;stroke-linecap:butt;stroke-linejoin:round;stroke-miterlimit:0;stroke-opacity:1;font-family:sans-serif"
     id="g7422"
     stroke-miterlimit="0"
     text-rendering="geometricPrecision"
     transform="translate(371,152)"
     font-size="11">
    <circle
       style="fill:none"
       sodipodi:ry="7.5"
       sodipodi:rx="7.5"
       sodipodi:cy="7.5"
       sodipodi:cx="14.5"
       d="M 22,7.5 C 22,11.642136 18.642136,15 14.5,15 10.357864,15 7,11.642136 7,7.5 7,3.3578644 10.357864,0 14.5,0 18.642136,0 22,3.3578644 22,7.5 z"
       id="circle7424"
       cy="7.5"
       cx="14.5"
       clip-path="url(#clipPath1)"
       r="7.5" />
    <line
       style="fill:none"
       id="line7426"
       y1="15"
       x2="15"
       clip-path="url(#clipPath1)"
       x1="15"
       y2="40" />
    <line
       style="fill:none"
       id="line7428"
       y1="24"
       x2="30"
       clip-path="url(#clipPath1)"
       x1="0"
       y2="24" />
    <line
       style="fill:none"
       id="line7430"
       y1="40"
       x2="0"
       clip-path="url(#clipPath1)"
       x1="15"
       y2="60" />
    <line
       style="fill:none"
       id="line7432"
       y1="40"
       x2="30"
       clip-path="url(#clipPath1)"
       x1="15"
       y2="60" />
  </g>
  <g
     style="font-size:11px;fill:#ffffff;fill-opacity:1;stroke:#ffffff;stroke-opacity:1;font-family:sans-serif"
     id="g7434"
     text-rendering="geometricPrecision"
     transform="translate(161,262)"
     font-size="11">
    <circle
       style="stroke:none"
       sodipodi:ry="7.5"
       sodipodi:rx="7.5"
       sodipodi:cy="7.5"
       sodipodi:cx="14.5"
       d="M 22,7.5 C 22,11.642136 18.642136,15 14.5,15 10.357864,15 7,11.642136 7,7.5 7,3.3578644 10.357864,0 14.5,0 18.642136,0 22,3.3578644 22,7.5 z"
       id="circle7436"
       cy="7.5"
       cx="14.5"
       clip-path="url(#clipPath1)"
       r="7.5" />
  </g>
  <g
     style="font-size:11px;fill:#000000;fill-opacity:1;stroke:#000000;stroke-linecap:butt;stroke-linejoin:round;stroke-miterlimit:0;stroke-opacity:1;font-family:sans-serif"
     id="g7438"
     stroke-miterlimit="0"
     text-rendering="geometricPrecision"
     transform="translate(161,262)"
     font-size="11">
    <circle
       style="fill:none"
       sodipodi:ry="7.5"
       sodipodi:rx="7.5"
       sodipodi:cy="7.5"
       sodipodi:cx="14.5"
       d="M 22,7.5 C 22,11.642136 18.642136,15 14.5,15 10.357864,15 7,11.642136 7,7.5 7,3.3578644 10.357864,0 14.5,0 18.642136,0 22,3.3578644 22,7.5 z"
       id="circle7440"
       cy="7.5"
       cx="14.5"
       clip-path="url(#clipPath1)"
       r="7.5" />
    <line
       style="fill:none"
       id="line7442"
       y1="15"
       x2="15"
       clip-path="url(#clipPath1)"
       x1="15"
       y2="40" />
    <line
       style="fill:none"
       id="line7444"
       y1="24"
       x2="30"
       clip-path="url(#clipPath1)"
       x1="0"
       y2="24" />
    <line
       style="fill:none"
       id="line7446"
       y1="40"
       x2="0"
       clip-path="url(#clipPath1)"
       x1="15"
       y2="60" />
    <line
       style="fill:none"
       id="line7448"
       y1="40"
       x2="30"
       clip-path="url(#clipPath1)"
       x1="15"
       y2="60" />
  </g>
  <g
     style="font-size:11px;fill:#ffffff;fill-opacity:1;stroke:#ffffff;stroke-opacity:1;font-family:sans-serif"
     id="g7450"
     text-rendering="geometricPrecision"
     transform="translate(281,262)"
     font-size="11">
    <circle
       style="stroke:none"
       sodipodi:ry="7.5"
       sodipodi:rx="7.5"
       sodipodi:cy="7.5"
       sodipodi:cx="14.5"
       d="M 22,7.5 C 22,11.642136 18.642136,15 14.5,15 10.357864,15 7,11.642136 7,7.5 7,3.3578644 10.357864,0 14.5,0 18.642136,0 22,3.3578644 22,7.5 z"
       id="circle7452"
       cy="7.5"
       cx="14.5"
       clip-path="url(#clipPath1)"
       r="7.5" />
  </g>
  <g
     style="font-size:11px;fill:#000000;fill-opacity:1;stroke:#000000;stroke-linecap:butt;stroke-linejoin:round;stroke-miterlimit:0;stroke-opacity:1;font-family:sans-serif"
     id="g7454"
     stroke-miterlimit="0"
     text-rendering="geometricPrecision"
     transform="translate(281,262)"
     font-size="11">
    <circle
       style="fill:none"
       sodipodi:ry="7.5"
       sodipodi:rx="7.5"
       sodipodi:cy="7.5"
       sodipodi:cx="14.5"
       d="M 22,7.5 C 22,11.642136 18.642136,15 14.5,15 10.357864,15 7,11.642136 7,7.5 7,3.3578644 10.357864,0 14.5,0 18.642136,0 22,3.3578644 22,7.5 z"
       id="circle7456"
       cy="7.5"
       cx="14.5"
       clip-path="url(#clipPath1)"
       r="7.5" />
    <line
       style="fill:none"
       id="line7458"
       y1="15"
       x2="15"
       clip-path="url(#clipPath1)"
       x1="15"
       y2="40" />
    <line
       style="fill:none"
       id="line7460"
       y1="24"
       x2="30"
       clip-path="url(#clipPath1)"
       x1="0"
       y2="24" />
    <line
       style="fill:none"
       id="line7462"
       y1="40"
       x2="0"
       clip-path="url(#clipPath1)"
       x1="15"
       y2="60" />
    <line
       style="fill:none"
       id="line7464"
       y1="40"
       x2="30"
       clip-path="url(#clipPath1)"
       x1="15"
       y2="60" />
  </g>
  <g
     style="font-size:11px;fill:#ffffff;fill-opacity:1;stroke:#ffffff;stroke-opacity:1;font-family:sans-serif"
     id="g7466"
     text-rendering="geometricPrecision"
     transform="translate(71,2)"
     font-size="11">
    <circle
       style="stroke:none"
       sodipodi:ry="7.5"
       sodipodi:rx="7.5"
       sodipodi:cy="7.5"
       sodipodi:cx="14.5"
       d="M 22,7.5 C 22,11.642136 18.642136,15 14.5,15 10.357864,15 7,11.642136 7,7.5 7,3.3578644 10.357864,0 14.5,0 18.642136,0 22,3.3578644 22,7.5 z"
       id="circle7468"
       cy="7.5"
       cx="14.5"
       clip-path="url(#clipPath1)"
       r="7.5" />
  </g>
  <g
     style="font-size:11px;fill:#000000;fill-opacity:1;stroke:#000000;stroke-linecap:butt;stroke-linejoin:round;stroke-miterlimit:0;stroke-opacity:1;font-family:sans-serif"
     id="g7470"
     stroke-miterlimit="0"
     text-rendering="geometricPrecision"
     transform="translate(71,2)"
     font-size="11">
    <circle
       style="fill:none"
       sodipodi:ry="7.5"
       sodipodi:rx="7.5"
       sodipodi:cy="7.5"
       sodipodi:cx="14.5"
       d="M 22,7.5 C 22,11.642136 18.642136,15 14.5,15 10.357864,15 7,11.642136 7,7.5 7,3.3578644 10.357864,0 14.5,0 18.642136,0 22,3.3578644 22,7.5 z"
       id="circle7472"
       cy="7.5"
       cx="14.5"
       clip-path="url(#clipPath1)"
       r="7.5" />
    <line
       style="fill:none"
       id="line7474"
       y1="15"
       x2="15"
       clip-path="url(#clipPath1)"
       x1="15"
       y2="40" />
    <line
       style="fill:none"
       id="line7476"
       y1="24"
       x2="30"
       clip-path="url(#clipPath1)"
       x1="0"
       y2="24" />
    <line
       style="fill:none"
       id="line7478"
       y1="40"
       x2="0"
       clip-path="url(#clipPath1)"
       x1="15"
       y2="60" />
    <line
       style="fill:none"
       id="line7480"
       y1="40"
       x2="30"
       clip-path="url(#clipPath1)"
       x1="15"
       y2="60" />
  </g>
  <g
     style="font-size:11px;fill:#ffffff;fill-opacity:1;stroke:#ffffff;stroke-opacity:1;font-family:sans-serif"
     id="g7482"
     text-rendering="geometricPrecision"
     transform="translate(71,92)"
     font-size="11">
    <circle
       style="stroke:none"
       sodipodi:ry="7.5"
       sodipodi:rx="7.5"
       sodipodi:cy="7.5"
       sodipodi:cx="14.5"
       d="M 22,7.5 C 22,11.642136 18.642136,15 14.5,15 10.357864,15 7,11.642136 7,7.5 7,3.3578644 10.357864,0 14.5,0 18.642136,0 22,3.3578644 22,7.5 z"
       id="circle7484"
       cy="7.5"
       cx="14.5"
       clip-path="url(#clipPath1)"
       r="7.5" />
  </g>
  <g
     style="font-size:11px;fill:#000000;fill-opacity:1;stroke:#000000;stroke-linecap:butt;stroke-linejoin:round;stroke-miterlimit:0;stroke-opacity:1;font-family:sans-serif"
     id="g7486"
     stroke-miterlimit="0"
     text-rendering="geometricPrecision"
     transform="translate(71,92)"
     font-size="11">
    <circle
       style="fill:none"
       sodipodi:ry="7.5"
       sodipodi:rx="7.5"
       sodipodi:cy="7.5"
       sodipodi:cx="14.5"
       d="M 22,7.5 C 22,11.642136 18.642136,15 14.5,15 10.357864,15 7,11.642136 7,7.5 7,3.3578644 10.357864,0 14.5,0 18.642136,0 22,3.3578644 22,7.5 z"
       id="circle7488"
       cy="7.5"
       cx="14.5"
       clip-path="url(#clipPath1)"
       r="7.5" />
    <line
       style="fill:none"
       id="line7490"
       y1="15"
       x2="15"
       clip-path="url(#clipPath1)"
       x1="15"
       y2="40" />
    <line
       style="fill:none"
       id="line7492"
       y1="24"
       x2="30"
       clip-path="url(#clipPath1)"
       x1="0"
       y2="24" />
    <line
       style="fill:none"
       id="line7494"
       y1="40"
       x2="0"
       clip-path="url(#clipPath1)"
       x1="15"
       y2="60" />
    <line
       style="fill:none"
       id="line7496"
       y1="40"
       x2="30"
       clip-path="url(#clipPath1)"
       x1="15"
       y2="60" />
  </g>
  <g
     style="font-size:11px;fill:#ffffff;fill-opacity:1;stroke:#ffffff;stroke-opacity:1;font-family:sans-serif"
     id="g7498"
     text-rendering="geometricPrecision"
     transform="translate(71,182)"
     font-size="11">
    <circle
       style="stroke:none"
       sodipodi:ry="7.5"
       sodipodi:rx="7.5"
       sodipodi:cy="7.5"
       sodipodi:cx="14.5"
       d="M 22,7.5 C 22,11.642136 18.642136,15 14.5,15 10.357864,15 7,11.642136 7,7.5 7,3.3578644 10.357864,0 14.5,0 18.642136,0 22,3.3578644 22,7.5 z"
       id="circle7500"
       cy="7.5"
       cx="14.5"
       clip-path="url(#clipPath1)"
       r="7.5" />
  </g>
  <g
     style="font-size:11px;fill:#000000;fill-opacity:1;stroke:#000000;stroke-linecap:butt;stroke-linejoin:round;stroke-miterlimit:0;stroke-opacity:1;font-family:sans-serif"
     id="g7502"
     stroke-miterlimit="0"
     text-rendering="geometricPrecision"
     transform="translate(71,182)"
     font-size="11">
    <circle
       style="fill:none"
       sodipodi:ry="7.5"
       sodipodi:rx="7.5"
       sodipodi:cy="7.5"
       sodipodi:cx="14.5"
       d="M 22,7.5 C 22,11.642136 18.642136,15 14.5,15 10.357864,15 7,11.642136 7,7.5 7,3.3578644 10.357864,0 14.5,0 18.642136,0 22,3.3578644 22,7.5 z"
       id="circle7504"
       cy="7.5"
       cx="14.5"
       clip-path="url(#clipPath1)"
       r="7.5" />
    <line
       style="fill:none"
       id="line7506"
       y1="15"
       x2="15"
       clip-path="url(#clipPath1)"
       x1="15"
       y2="40" />
    <line
       style="fill:none"
       id="line7508"
       y1="24"
       x2="30"
       clip-path="url(#clipPath1)"
       x1="0"
       y2="24" />
    <line
       style="fill:none"
       id="line7510"
       y1="40"
       x2="0"
       clip-path="url(#clipPath1)"
       x1="15"
       y2="60" />
    <line
       style="fill:none"
       id="line7512"
       y1="40"
       x2="30"
       clip-path="url(#clipPath1)"
       x1="15"
       y2="60" />
  </g>
  <g
     style="font-size:11px;fill:#000000;fill-opacity:1;stroke:#000000;stroke-opacity:1;font-family:sans-serif"
     id="g7514"
     text-rendering="geometricPrecision"
     transform="translate(20,242)"
     font-size="11">
    <text
       style="stroke:none"
       id="text7516"
       clip-path="url(#clipPath4)"
       y="11"
       xml:space="preserve"
       x="8">Emergency Services</text>
  </g>
  <g
     style="font-size:11px;fill:#000000;fill-opacity:1;stroke:#000000;stroke-opacity:1;font-family:sans-serif"
     id="g7518"
     text-rendering="geometricPrecision"
     transform="translate(340,212)"
     font-size="11">
    <text
       style="stroke:none"
       id="text7520"
       clip-path="url(#clipPath5)"
       y="11"
       xml:space="preserve"
       x="8">Call Operator</text>
  </g>
  <g
     style="font-size:11px;fill:#000000;fill-opacity:1;stroke:#000000;stroke-opacity:1;font-family:sans-serif"
     id="g7522"
     text-rendering="geometricPrecision"
     transform="translate(477,212)"
     font-size="11">
    <text
       style="stroke:none"
       id="text7524"
       clip-path="url(#clipPath6)"
       y="11"
       xml:space="preserve"
       x="9">Technician</text>
  </g>
  <g
     style="font-size:11px;fill:#000000;fill-opacity:1;stroke:#000000;stroke-opacity:1;font-family:sans-serif"
     id="g7526"
     text-rendering="geometricPrecision"
     transform="translate(128,322)"
     font-size="11">
    <text
       style="stroke:none"
       id="text7528"
       clip-path="url(#clipPath7)"
       y="11"
       xml:space="preserve"
       x="6">Business User</text>
  </g>
  <g
     style="font-size:11px;fill:#000000;fill-opacity:1;stroke:#000000;stroke-opacity:1;font-family:sans-serif"
     id="g7530"
     text-rendering="geometricPrecision"
     transform="translate(241,322)"
     font-size="11">
    <text
       style="stroke:none"
       id="text7532"
       clip-path="url(#clipPath8)"
       y="11"
       xml:space="preserve"
       x="8">Residential User</text>
  </g>
  <g
     style="font-size:11px;font-style:italic;fill:#000000;fill-opacity:1;stroke:#000000;stroke-opacity:1;font-family:sans-serif"
     id="g7534"
     font-style="italic"
     text-rendering="geometricPrecision"
     transform="translate(210,212)"
     font-size="11">
    <text
       style="stroke:none"
       id="text7536"
       clip-path="url(#clipPath9)"
       y="11"
       xml:space="preserve"
       x="9">Customer</text>
  </g>
  <g
     style="font-size:11px;font-style:italic;fill:#000000;fill-opacity:1;stroke:#000000;stroke-opacity:1;font-family:sans-serif"
     id="g7538"
     font-style="italic"
     text-rendering="geometricPrecision"
     transform="translate(374,62)"
     font-size="11">
    <text
       style="stroke:none"
       id="text7540"
       clip-path="url(#clipPath10)"
       y="11"
       xml:space="preserve"
       x="9">User</text>
  </g>
  <g
     style="font-size:11px;font-style:italic;fill:#000000;fill-opacity:1;stroke:#000000;stroke-opacity:1;font-family:sans-serif"
     id="g7542"
     font-style="italic"
     text-rendering="geometricPrecision"
     transform="translate(2,62)"
     font-size="11">
    <text
       style="stroke:none"
       id="text7544"
       clip-path="url(#clipPath11)"
       y="11"
       xml:space="preserve"
       x="9">Remote Monitoring Module</text>
  </g>
  <g
     style="font-size:11px;fill:#000000;fill-opacity:1;stroke:#000000;stroke-opacity:1;font-family:sans-serif"
     id="g7546"
     text-rendering="geometricPrecision"
     transform="translate(4,152)"
     font-size="11">
    <text
       style="stroke:none"
       id="text7548"
       clip-path="url(#clipPath12)"
       y="11"
       xml:space="preserve"
       x="8">Utility Information System</text>
  </g>
  <g
     style="font-size:11px;fill:#000000;fill-opacity:1;stroke:#000000;stroke-linecap:butt;stroke-linejoin:round;stroke-opacity:1;font-family:sans-serif"
     id="g7550"
     text-rendering="geometricPrecision"
     transform="translate(201,26)"
     font-size="11">
    <line
       style="fill:none"
       id="line7552"
       y1="50"
       x2="190"
       clip-path="url(#clipPath13)"
       x1="190"
       y2="100" />
    <line
       style="fill:none"
       id="line7554"
       y1="100"
       x2="50"
       clip-path="url(#clipPath13)"
       x1="190"
       y2="100" />
    <line
       style="fill:none"
       id="line7556"
       y1="100"
       x2="50"
       clip-path="url(#clipPath13)"
       x1="50"
       y2="125" />
    <polygon
       style="fill:#ffffff;stroke:none"
       id="polygon7558"
       points="196,62 190,50 184,62 "
       clip-path="url(#clipPath13)" />
    <polygon
       style="fill:none"
       id="polygon7560"
       clip-path="url(#clipPath13)"
       points="196,62 190,50 184,62 " />
  </g>
  <g
     style="font-size:11px;fill:#000000;fill-opacity:1;stroke:#000000;stroke-linecap:butt;stroke-linejoin:round;stroke-opacity:1;font-family:sans-serif"
     id="g7562"
     text-rendering="geometricPrecision"
     transform="translate(341,26)"
     font-size="11">
    <line
       style="fill:none"
       id="line7564"
       y1="50"
       x2="50"
       clip-path="url(#clipPath14)"
       x1="50"
       y2="100" />
    <line
       style="fill:none"
       id="line7566"
       y1="100"
       x2="180"
       clip-path="url(#clipPath14)"
       x1="50"
       y2="100" />
    <line
       style="fill:none"
       id="line7568"
       y1="100"
       x2="180"
       clip-path="url(#clipPath14)"
       x1="180"
       y2="125" />
    <polygon
       style="fill:#ffffff;stroke:none"
       id="polygon7570"
       points="56,62 50,50 44,62 "
       clip-path="url(#clipPath14)" />
    <polygon
       style="fill:none"
       id="polygon7572"
       clip-path="url(#clipPath14)"
       points="56,62 50,50 44,62 " />
  </g>
  <g
     style="font-size:11px;fill:#000000;fill-opacity:1;stroke:#000000;stroke-linecap:butt;stroke-linejoin:round;stroke-opacity:1;font-family:sans-serif"
     id="g7574"
     text-rendering="geometricPrecision"
     transform="translate(341,26)"
     font-size="11">
    <line
       style="fill:none"
       id="line7576"
       y1="50"
       x2="50"
       clip-path="url(#clipPath15)"
       x1="50"
       y2="125" />
    <polygon
       style="fill:#ffffff;stroke:none"
       id="polygon7578"
       points="56,62 50,50 44,62 "
       clip-path="url(#clipPath15)" />
    <polygon
       style="fill:none"
       id="polygon7580"
       clip-path="url(#clipPath15)"
       points="56,62 50,50 44,62 " />
  </g>
  <g
     style="font-size:11px;fill:#000000;fill-opacity:1;stroke:#000000;stroke-linecap:butt;stroke-linejoin:round;stroke-opacity:1;font-family:sans-serif"
     id="g7582"
     text-rendering="geometricPrecision"
     transform="translate(141,176)"
     font-size="11">
    <line
       style="fill:none"
       id="line7584"
       y1="50"
       x2="100"
       clip-path="url(#clipPath16)"
       x1="100"
       y2="76" />
    <line
       style="fill:none"
       id="line7586"
       y1="76"
       x2="50"
       clip-path="url(#clipPath16)"
       x1="100"
       y2="86" />
    <polygon
       style="fill:#ffffff;stroke:none"
       id="polygon7588"
       points="106,62 100,50 94,62 "
       clip-path="url(#clipPath16)" />
    <polygon
       style="fill:none"
       id="polygon7590"
       clip-path="url(#clipPath16)"
       points="106,62 100,50 94,62 " />
  </g>
  <g
     style="font-size:11px;fill:#000000;fill-opacity:1;stroke:#000000;stroke-linecap:butt;stroke-linejoin:round;stroke-opacity:1;font-family:sans-serif"
     id="g7592"
     text-rendering="geometricPrecision"
     transform="translate(191,176)"
     font-size="11">
    <line
       style="fill:none"
       id="line7594"
       y1="50"
       x2="50"
       clip-path="url(#clipPath17)"
       x1="50"
       y2="76" />
    <line
       style="fill:none"
       id="line7596"
       y1="76"
       x2="89"
       clip-path="url(#clipPath17)"
       x1="50"
       y2="86" />
    <polygon
       style="fill:#ffffff;stroke:none"
       id="polygon7598"
       points="56,62 50,50 44,62 "
       clip-path="url(#clipPath17)" />
    <polygon
       style="fill:none"
       id="polygon7600"
       clip-path="url(#clipPath17)"
       points="56,62 50,50 44,62 " />
  </g>
</svg>
